<svg width="1920" height="779" viewBox="0 0 1920 779" fill="none" xmlns="http://www.w3.org/2000/svg">
<rect width="1920" height="779" fill="#0C0053"/>
<g opacity="0.2">
<mask id="mask0_4406_14903" style="mask-type:alpha" maskUnits="userSpaceOnUse" x="0" y="0" width="1920" height="779">
<rect width="1920" height="779" fill="#D9D9D9"/>
</mask>
<g mask="url(#mask0_4406_14903)">
<path d="M-1182.05 778.999L-1182.19 778.604L70.3147 498.824L70.4532 499.219L-1182.05 778.999Z" fill="#FF6CA4"/>
<path d="M-956.488 778.994L-956.642 778.604L164.017 498.824L164.171 499.214L-956.488 778.994Z" fill="#FF6CA4"/>
<path d="M-730.921 778.993L-731.096 778.608L257.723 498.828L257.893 499.213L-730.921 778.993Z" fill="#FF6CA4"/>
<path d="M-505.354 778.988L-505.549 778.608L351.426 498.828L351.621 499.208L-505.354 778.988Z" fill="#FF6CA4"/>
<path d="M-279.785 778.983L-280.006 778.614L445.124 498.834L445.35 499.203L-279.785 778.983Z" fill="#FF6CA4"/>
<path d="M-54.2081 778.978L-54.4697 778.624L538.821 498.844L539.082 499.198L-54.2081 778.978Z" fill="#FF6CA4"/>
<path d="M171.377 778.964L171.064 778.635L632.516 498.855L632.823 499.184L171.377 778.964Z" fill="#FF6CA4"/>
<path d="M396.965 778.941L396.591 778.659L726.197 498.879L726.572 499.161L396.965 778.941Z" fill="#FF6CA4"/>
<path d="M622.558 778.902L622.111 778.702L819.873 498.922L820.319 499.122L622.558 778.902Z" fill="#FF6CA4"/>
<path d="M848.141 778.841L847.639 778.764L913.561 498.984L914.064 499.061L848.141 778.841Z" fill="#FF6CA4"/>
<path d="M1073.2 778.841L1007.27 499.061L1007.78 498.984L1073.7 778.764L1073.2 778.841Z" fill="#FF6CA4"/>
<path d="M1298.78 778.902L1101.02 499.122L1101.47 498.922L1299.23 778.702L1298.78 778.902Z" fill="#FF6CA4"/>
<path d="M1524.37 778.941L1194.77 499.161L1195.14 498.879L1524.75 778.659L1524.37 778.941Z" fill="#FF6CA4"/>
<path d="M1749.96 778.964L1288.52 499.184L1288.82 498.855L1750.28 778.635L1749.96 778.964Z" fill="#FF6CA4"/>
<path d="M1975.55 778.978L1382.25 499.198L1382.52 498.844L1975.81 778.624L1975.55 778.978Z" fill="#FF6CA4"/>
<path d="M2201.12 778.983L1475.99 499.203L1476.21 498.834L2201.34 778.614L2201.12 778.983Z" fill="#FF6CA4"/>
<path d="M2426.69 778.99L1569.72 499.21L1569.91 498.83L2426.89 778.61L2426.69 778.99Z" fill="#FF6CA4"/>
<path d="M2652.26 778.995L1663.45 499.215L1663.62 498.83L2652.43 778.61L2652.26 778.995Z" fill="#FF6CA4"/>
<path d="M2877.83 778.994L1757.17 499.214L1757.32 498.824L2877.98 778.604L2877.83 778.994Z" fill="#FF6CA4"/>
<path d="M3103.39 778.999L1850.89 499.219L1851.03 498.824L3103.53 778.604L3103.39 778.999Z" fill="#FF6CA4"/>
<path d="M1955.5 498.957H-34.167V499.367H1955.5V498.957Z" fill="#FF6CA4"/>
<path d="M2001.04 508.16H-79.6934V508.57H2001.04V508.16Z" fill="#FF6CA4"/>
<path d="M2050.94 518.244H-129.592V518.654H2050.94V518.244Z" fill="#FF6CA4"/>
<path d="M2105.86 529.342H-184.521V529.752H2105.86V529.342Z" fill="#FF6CA4"/>
<path d="M2166.61 541.625H-245.273V542.035H2166.61V541.625Z" fill="#FF6CA4"/>
<path d="M2234.18 555.277H-312.838V555.688H2234.18V555.277Z" fill="#FF6CA4"/>
<path d="M2309.76 570.551H-388.418V570.961H2309.76V570.551Z" fill="#FF6CA4"/>
<path d="M2394.88 587.756H-473.534V588.166H2394.88V587.756Z" fill="#FF6CA4"/>
<path d="M2491.46 607.273H-570.12V607.684H2491.46V607.273Z" fill="#FF6CA4"/>
<path d="M2601.99 629.613H-680.647V630.024H2601.99V629.613Z" fill="#FF6CA4"/>
<path d="M2729.72 655.428H-808.383V655.838H2729.72V655.428Z" fill="#FF6CA4"/>
<path d="M2879.01 685.598H-957.673V686.008H2879.01V685.598Z" fill="#FF6CA4"/>
<path d="M3055.83 721.334H-1134.49V721.744H3055.83V721.334Z" fill="#FF6CA4"/>
<path d="M3268.54 764.324H-1347.21V764.735H3268.54V764.324Z" fill="#FF6CA4"/>
<g style="mix-blend-mode:color-dodge">
<path d="M-63.4624 365.667L-63.5547 364.647L85.8066 351.023L179.222 222.6L179.607 222.779L321.408 289.22L402.79 280.079L443.917 154L629.748 154.636L662.088 216.716L753.878 301.212L916.432 259.039L994.269 234.079L1120.22 191.772L1120.37 191.824L1307.49 250.416L1348.26 251.904L1462.31 204.37L1524.96 184.463L1525.18 184.632L1668.62 299.596L1805.92 329.147L2035.02 241.866L2035.39 242.825L1806 330.213L1805.85 330.183L1668.17 300.545L1668.08 300.473L1524.75 185.607L1462.66 205.334L1348.44 252.935L1348.33 252.93L1307.31 251.437L1307.25 251.416L1120.23 192.85L994.588 235.054L916.719 260.023L753.591 302.346L753.385 302.156L661.262 217.347L661.221 217.27L629.122 155.662L444.66 155.026L403.564 281.028L403.236 281.064L321.233 290.271L321.105 290.21L179.556 223.887L86.3657 352.003L86.1348 352.023L-63.4624 365.667Z" fill="#6EC4FF"/>
<path d="M-63.4626 371.506L-63.5498 370.485L84.7753 357.508L180.166 235.209L180.535 235.368L321.925 298.648L402.764 289.944L447.302 169.871H447.656L631.779 170.476L665.417 229.597L757.889 310.077L919.514 269.909L996.952 246.134L1122.28 205.843L1122.43 205.889L1308.58 261.697L1349.06 263.107L1462.69 217.841L1525.01 198.883L1525.22 199.042L1669.28 308.527L1805.73 336.672L2033.86 253.551L2034.21 254.515L1805.81 337.739L1805.67 337.708L1668.84 309.487L1668.75 309.415L1524.81 200.016L1463.02 218.805L1349.24 264.143L1349.13 264.138L1308.41 262.717L1308.35 262.697L1122.29 206.915L997.26 247.114L919.791 270.893L757.617 311.2L757.417 311.025L664.612 230.254L664.571 230.177L631.184 171.497L448.015 170.897L403.507 290.898L321.761 299.7L180.479 236.47L85.3088 358.492L85.0883 358.513L-63.4626 371.506Z" fill="#6EC4FF"/>
<path d="M-63.4626 377.343L-63.5498 376.322L83.7443 363.996L181.11 247.812L181.458 247.96L322.449 308.076L402.738 299.808L450.682 185.736H451.026L633.815 186.311L668.741 242.472L761.9 318.935L922.597 280.773L999.64 258.188L1124.34 219.913L1124.49 219.954L1309.67 272.971L1349.87 274.315L1463.07 231.311L1525.06 213.301L1525.26 213.45L1669.94 317.463L1805.55 344.202L2032.7 265.236L2033.04 266.2L1805.62 345.264L1805.48 345.238L1669.52 318.427L1669.43 318.361L1524.87 214.425L1463.39 232.28L1350.04 275.346L1349.93 275.341L1309.51 273.992L1309.45 273.976L1124.35 220.985L999.937 259.173L922.859 281.763L761.643 320.048L761.448 319.889L667.961 243.159L667.915 243.087L633.246 187.337L451.364 186.767L403.451 300.767L403.148 300.798L322.29 309.128L322.166 309.076L181.407 249.053L84.2573 364.981L84.0419 364.997L-63.4626 377.343Z" fill="#6EC4FF"/>
<path d="M-63.4678 383.179L-63.5498 382.158L82.7133 370.479L182.053 260.419L182.387 260.552L322.967 317.508L402.718 309.67L454.067 201.605L635.851 202.149L672.07 255.351L765.916 327.792L925.68 291.636L1002.33 270.241L1126.41 233.982L1126.54 234.018L1310.75 284.249L1350.67 285.521L1463.45 244.774L1525.11 227.719L1525.3 227.852L1670.6 326.397L1805.37 351.731L2031.55 276.914L2031.87 277.889L1805.43 352.788L1805.31 352.762L1670.2 327.367L1670.11 327.305L1524.93 228.837L1463.76 245.754L1350.83 286.553L1350.73 286.547L1310.6 285.27L1310.54 285.255L1126.42 235.049L1002.61 271.226L925.931 292.631L765.67 328.9L765.48 328.752L671.31 256.064L671.264 255.992L635.308 203.175L454.719 202.631L403.395 310.635L403.107 310.66L322.813 318.554L322.695 318.503L182.335 261.639L83.2006 371.469L83.0006 371.484L-63.4678 383.179Z" fill="#6EC4FF"/>
<path d="M-63.468 389.016L-63.5449 387.996L81.6821 376.962L183.002 273.021L183.315 273.145L323.484 326.936L402.692 319.534L457.458 217.471H457.765L637.882 217.984L638.036 218.194L675.393 268.226L769.927 336.651L928.762 302.505L1005.01 282.295L1128.47 248.052L1128.6 248.088L1311.84 295.524L1351.47 296.724L1463.83 258.244L1525.16 242.138L1525.35 242.261L1671.25 335.328L1805.18 359.256L2030.39 288.599L2030.69 289.579L1805.25 360.313L1805.13 360.292L1670.88 336.302L1670.79 336.251L1524.98 243.246L1464.13 259.224L1351.63 297.755H1351.54L1311.7 296.545L1128.48 249.114L1005.28 283.285L929.003 303.5L769.696 337.749L674.613 268.903L637.369 219.01L458.068 218.502L403.338 320.504L403.061 320.529L323.341 327.982L323.228 327.936L183.264 274.222L82.1488 377.958L81.954 377.973L-63.468 389.016Z" fill="#6EC4FF"/>
<path d="M-63.468 394.853L-63.5449 393.832L80.6511 383.45L183.946 285.628L324.002 336.363L402.671 329.397L460.843 233.34H461.13L639.919 233.822L678.712 281.104L773.938 345.508L931.845 313.368L1007.7 294.348L1130.54 262.121L1130.66 262.151L1312.93 306.797L1352.28 307.931L1464.21 271.712L1525.21 256.555L1525.39 256.663L1671.91 344.262L1805 366.785L2029.23 300.283L2029.51 301.263L1805.06 367.836L1804.94 367.816L1671.55 345.242L1671.47 345.195L1525.04 257.653L1464.5 272.697L1352.43 308.962L1312.74 307.808L1130.54 263.177L1007.95 295.343L932.071 314.368L773.723 346.601L773.543 346.478L678.014 281.869L677.968 281.812L639.431 234.848L461.418 234.366L403.276 330.372L403.02 330.392L323.869 337.404L323.761 337.368L184.192 286.808L81.0923 384.445L80.9127 384.455L-63.468 394.853Z" fill="#6EC4FF"/>
<path d="M-63.4732 400.692L-63.5449 399.671L79.6252 389.936L184.89 298.233L185.172 298.331L324.52 345.798L402.646 339.258L464.228 249.207H464.5L641.95 249.664L682.036 293.981L777.954 354.369L934.928 324.234L1010.39 306.404L1132.6 276.193L1132.72 276.218L1314.02 318.079L1353.08 319.14L1464.59 285.179L1525.25 270.976L1525.43 271.073L1672.57 353.199L1804.81 374.317L2028.07 311.965L2028.34 312.955L1804.87 375.363L1804.76 375.348L1672.23 354.184L1672.15 354.138L1525.1 272.069L1464.86 286.169L1353.23 320.166H1353.14L1313.89 319.099L1313.84 319.089L1132.6 277.249L1010.63 307.399L935.143 325.239L777.749 355.456L777.58 355.349L681.369 294.776L641.493 250.689L464.767 250.233L403.22 340.243L402.974 340.263L324.392 346.834L324.295 346.803L185.12 299.393L80.0356 390.936L79.8663 390.946L-63.4732 400.692Z" fill="#6EC4FF"/>
<path d="M-63.4724 406.528L-63.5391 405.507L78.5949 396.418L185.834 310.835L186.096 310.917L325.044 355.224L402.626 349.12L467.614 265.076H467.871L643.982 265.497L685.355 306.86L781.966 363.226L938.011 335.097L1013.07 318.457L1134.66 290.261L1134.77 290.287L1315.11 329.352L1353.89 330.342L1464.98 298.648L1525.31 285.393L1525.47 285.481L1673.23 362.134L1804.63 381.841L2026.91 323.648L2027.17 324.638L1804.69 382.887L1804.58 382.872L1672.91 363.118L1672.83 363.082L1525.16 286.476L1465.23 299.643L1354.02 331.373L1314.94 330.368L1134.67 291.313L1013.3 319.457L938.216 336.107L781.776 364.303L781.612 364.211L684.724 307.675L684.678 307.629L643.556 266.523L468.117 266.102L403.159 350.11L402.934 350.126L324.921 356.26L324.829 356.23L186.05 311.979L78.9848 397.423L78.8206 397.434L-63.4724 406.528Z" fill="#6EC4FF"/>
<path d="M-63.4776 412.365L-63.5391 411.345L77.5639 402.907L186.783 323.438L187.024 323.51L325.562 364.652L402.605 358.984L471.005 280.941L646.018 281.336L646.162 281.47L688.674 319.735L785.977 372.085L941.094 345.966L1015.76 330.511L1136.72 304.331L1136.83 304.352L1316.2 340.632L1354.69 341.55L1465.36 312.118L1525.35 299.812L1525.51 299.889L1673.88 371.064L1804.44 389.371L2025.75 335.328L2025.99 336.328L1804.5 390.412L1804.4 390.402L1673.58 372.059L1673.51 372.023L1525.22 300.889L1465.6 313.118L1354.82 342.576H1354.74L1316.08 341.652L1136.73 305.378L1015.97 331.517L941.284 346.971L785.803 373.157L785.649 373.075L688.079 320.581L688.033 320.54L645.623 282.362L471.467 281.972L403.098 359.979L402.887 359.995L325.45 365.688L325.357 365.663L186.973 324.566L77.9281 403.912L77.7794 403.917L-63.4776 412.365Z" fill="#6EC4FF"/>
<path d="M-63.4769 418.202L-63.5332 417.181L76.5388 409.389L187.728 336.04L187.953 336.101L326.081 374.079L402.585 368.847L474.396 296.811H474.607L648.05 297.175L691.993 332.613L789.994 380.942L944.182 356.829L1018.45 342.564L1138.79 318.4L1138.89 318.415L1317.29 351.905L1355.5 352.756L1465.74 325.586L1525.4 314.23L1525.55 314.291L1674.54 379.998L1804.26 396.894L2024.59 347.011L2024.82 348.012L1804.31 397.936L1804.22 397.925L1674.26 380.998L1674.2 380.968L1525.28 315.297L1465.96 326.586L1355.61 353.782L1317.14 352.92L1138.79 319.441L1018.65 343.57L944.357 357.839L789.83 382.009L789.682 381.937L691.439 333.485L647.686 298.195L474.817 297.836L403.037 369.842L402.847 369.857L325.979 375.115L325.892 375.095L187.902 337.153L76.8723 410.4L76.7338 410.405L-63.4769 418.202Z" fill="#6EC4FF"/>
<path d="M-63.482 424.039L-63.5332 423.018L75.5078 415.873L188.671 348.643L188.877 348.694L326.599 383.507L402.565 378.711L477.782 312.676H477.977L650.081 313.009L650.215 313.107L695.312 345.493L794.006 389.801L947.265 367.693L1021.14 354.618L1140.85 332.47L1140.94 332.485L1318.38 363.179L1356.3 363.959L1466.13 339.056L1525.45 328.649L1525.58 328.7L1675.2 388.934L1804.08 404.424L2023.43 358.696L2023.64 359.702L1804.12 405.466L1804.03 405.455L1674.94 389.934L1674.88 389.908L1525.34 329.71L1466.33 340.061L1356.41 364.99L1356.35 364.985L1318.24 364.2L1140.86 333.511L1021.32 355.629L947.424 368.709L793.857 390.857L793.718 390.801L694.799 346.386L649.748 314.035L478.166 313.707L402.98 379.711L326.507 384.543L326.425 384.522L188.83 349.74L75.8156 416.889L-63.482 424.039Z" fill="#6EC4FF"/>
<path d="M-63.4821 429.877L-63.5283 428.856L74.4818 422.363L189.615 361.246L189.805 361.287L327.122 392.941L402.544 388.576L481.172 328.547H481.346L652.112 328.85L652.241 328.926L698.625 358.374L798.017 398.66L950.348 378.563L1023.82 366.673L1142.91 346.541L1143 346.551L1319.47 374.46L1357.11 375.167L1466.51 352.527L1525.5 343.068L1525.62 343.109L1675.85 397.87L1803.89 411.955L2022.27 370.382L2022.46 371.387L1803.93 412.991L1803.85 412.981L1675.62 398.875L1675.56 398.855L1525.4 344.12L1466.7 353.532L1357.21 376.193H1357.15L1319.34 375.475L1142.92 347.577L1023.99 367.689L950.497 379.579L797.883 399.711L797.755 399.66L698.158 359.287L698.117 359.261L651.815 329.875L481.516 329.573L402.919 389.581L327.03 393.972L326.958 393.956L189.759 362.329L74.7588 423.373L74.646 423.378L-63.4821 429.877Z" fill="#6EC4FF"/>
<path d="M-63.4821 435.714L-63.5283 434.689L73.4508 428.846L190.564 373.844L190.728 373.88L327.64 402.369L402.524 398.439L484.557 344.412H484.711L654.144 344.684L654.262 344.751L701.944 371.254L802.028 407.518L953.43 389.427L1026.51 378.727L1144.98 360.605L1145.05 360.616L1320.56 385.734L1357.91 386.37L1466.9 365.991L1525.55 357.482L1525.66 357.523L1676.51 406.805L1803.71 419.48L2021.11 382.067L2021.29 383.077L1803.74 420.516L1803.68 420.511L1676.29 407.816L1676.24 407.795L1525.45 358.533L1467.06 367.007L1358 387.401H1357.95L1320.44 386.755L1144.98 361.647L1026.66 379.743L953.564 390.443L801.91 408.565L801.797 408.524L701.518 372.187L653.877 345.71L484.865 345.438L402.857 399.45L402.719 399.455L327.558 403.4L327.497 403.384L190.687 374.921L73.7021 429.862L73.5995 429.867L-63.4821 435.714Z" fill="#6EC4FF"/>
<path d="M-63.4872 441.551L-63.5283 440.525L72.4249 435.334L191.508 386.446L328.159 411.795L402.503 408.302L487.948 360.281H488.081L656.175 360.522L705.258 384.133L806.044 416.376L956.513 400.295L1029.2 390.785L1147.04 374.674L1147.11 374.684L1321.64 397.012L1358.72 397.577L1467.28 379.46L1525.59 371.899L1525.7 371.93L1677.17 415.74L1803.52 427.009L2019.95 393.745L2020.11 394.761L1803.56 428.04L1803.5 428.035L1676.97 416.75L1676.92 416.735L1525.52 372.946L1467.43 380.475L1358.8 398.603H1358.75L1321.54 398.033L1147.05 375.71L1029.33 391.801L956.636 401.311L805.936 417.417L805.834 417.386L704.878 385.087L704.847 385.071L655.944 361.548L488.215 361.307L402.796 409.318L402.673 409.323L328.087 412.826L328.03 412.816L191.615 387.508L72.6456 436.349L72.5532 436.355L-63.4872 441.551Z" fill="#6EC4FF"/>
<path d="M-63.4885 447.389L-63.5244 446.363L71.3927 441.818L192.45 399.045L192.579 399.065L328.675 421.224L402.481 418.167L491.332 376.152H491.45L658.21 376.363L658.302 376.399L708.57 397.019L810.054 425.23L959.595 411.16L1031.88 402.84L1149.1 388.745L1149.16 388.75L1322.75 408.293L1359.53 408.785L1467.66 392.93L1525.64 386.314L1525.73 386.339L1677.82 424.676L1803.34 434.534L2018.8 405.431L2018.93 406.446L1803.37 435.565L1803.31 435.56L1677.65 425.692L1677.61 425.681L1525.57 387.355L1467.79 393.951L1359.6 409.811H1359.56L1322.69 409.314L1149.11 389.776L1032.01 403.856L959.703 412.181L809.962 426.271L809.869 426.245L708.237 397.988L708.211 397.978L658.005 377.389L491.563 377.178L402.733 419.182L402.63 419.188L328.614 422.255L328.563 422.245L192.543 400.101L71.5877 442.839H71.5055L-63.4885 447.389Z" fill="#6EC4FF"/>
<path d="M-63.4936 453.226L-63.5244 452.2L70.3668 448.307L193.394 411.642L193.502 411.658L329.193 430.652L402.461 428.031L494.722 392.018H494.815L660.241 392.197L660.318 392.228L711.909 409.909L814.065 434.088L962.682 422.024L1034.57 414.894L1151.17 402.815L1151.22 402.82L1323.84 419.567L1360.33 419.988L1468.05 406.4L1525.69 400.732L1525.77 400.748L1678.47 433.611L1803.16 442.065L2017.64 417.115L2017.76 418.136L1803.18 443.09H1803.13L1678.33 434.627L1678.29 434.622L1525.63 401.768L1468.16 407.421L1360.39 421.019L1360.36 421.014L1323.78 420.588L1151.17 403.846L1034.67 415.915L962.775 423.05L813.988 435.125L813.906 435.104L711.622 410.894L660.067 393.223L494.912 393.043L402.671 429.051L402.584 429.057L329.142 431.683L329.096 431.678L193.471 412.689L70.531 449.328H70.4644L-63.4936 453.226Z" fill="#6EC4FF"/>
<path d="M-63.4929 459.062L-63.5186 458.036L69.3365 454.789L194.339 424.239L194.431 424.254L329.712 440.084L402.441 437.898L498.109 407.887H498.185L662.273 408.035L662.34 408.056L715.218 422.787L818.077 442.946L965.766 432.892L1037.26 426.947L1153.23 416.884H1153.27L1324.92 430.841L1361.14 431.194L1468.43 419.869L1525.74 415.15L1525.8 415.16L1679.13 442.546L1802.97 449.588L2016.48 428.799L2016.58 429.82L1802.99 450.619L1802.95 450.614L1679.01 443.566L1678.98 443.556L1525.69 416.181L1468.53 420.895L1361.19 432.22H1361.16L1324.88 431.866L1153.23 417.909L1037.35 427.968L965.843 433.913L818.015 443.977L817.949 443.967L714.982 423.788L662.135 409.061L498.262 408.913L402.616 438.919H402.544L329.671 441.109L329.63 441.104L194.4 425.28L69.475 455.815H69.4187L-63.4929 459.062Z" fill="#6EC4FF"/>
<path d="M-63.498 464.9L-63.5186 463.874L68.3107 461.278L195.282 436.837L195.354 436.847L330.23 449.511L402.421 447.762L501.494 423.752H501.555L664.304 423.875L664.361 423.885L718.527 435.673L822.093 451.799L968.849 443.756L1039.95 439.001L1155.3 430.948L1155.33 430.954L1326.01 442.12L1361.97 442.402L1468.82 433.339L1525.79 429.563L1525.84 429.569L1679.81 451.481L1802.79 457.118L2015.32 440.484L2015.4 441.505L1802.8 458.144H1802.77L1679.71 452.502L1525.75 430.594L1468.89 434.365L1362.01 443.423L1325.97 443.141L1155.3 431.979L1040.02 440.027L968.91 444.782L822.042 452.83L821.985 452.825L718.337 436.683L664.197 424.901L501.617 424.778L402.554 448.783L402.498 448.788L330.194 450.537L330.164 450.532L195.329 437.873L68.4185 462.299L68.3723 462.304L-63.498 464.9Z" fill="#6EC4FF"/>
<path d="M-63.4983 470.736L-63.5137 469.71L67.2794 467.761L196.226 449.433L196.277 449.439L330.774 458.938L402.395 457.625L504.879 439.621H504.925L666.34 439.708L666.381 439.719L721.835 448.556L826.104 460.656L971.936 454.624L1042.63 451.054L1157.36 445.017H1157.38L1327.09 453.393L1362.77 453.604L1469.2 446.812L1525.84 443.976L1525.87 443.981L1680.46 460.415L1802.63 464.642L2014.17 452.167L2014.22 453.193L1802.64 465.668L1680.39 461.436L1525.81 445.007L1469.26 447.833L1362.8 454.63L1327.07 454.419L1157.36 446.043L1042.69 452.08L971.983 455.645L826.068 461.682L826.027 461.677L721.696 449.572L666.258 440.734L504.966 440.647L402.492 458.651H402.456L330.748 459.964L196.262 450.464L67.3616 468.787H67.3308L-63.4983 470.736Z" fill="#6EC4FF"/>
<path d="M-63.5034 476.575L-63.5137 475.549L66.2741 474.251L197.165 462.033H197.201L331.287 468.368L402.374 467.491L508.264 455.488H508.29L668.372 455.55H668.402L725.143 461.443L830.12 469.512L975.019 465.49L1045.33 463.11L1159.4 459.089L1328.18 464.67L1363.57 464.813L1469.59 460.284L1525.88 458.397H1525.91L1681.1 469.353L1802.43 472.169L2013.01 463.854L2013.05 464.88L1802.44 473.195L1681.06 470.379L1525.86 459.422L1469.63 461.31L1363.59 465.839L1328.16 465.696L1159.4 460.115L1045.36 464.136L975.05 466.516L830.095 470.543L830.064 470.538L725.051 462.469L668.32 456.576L508.321 456.514L402.41 468.517L331.266 469.394L197.19 463.059L66.3254 475.272L-63.5034 476.575Z" fill="#6EC4FF"/>
<path d="M-63.5027 482.411L-63.5078 481.385L65.2335 480.739L198.094 474.63L331.795 477.795L402.36 477.359L511.63 471.357L670.393 471.388L728.458 474.332L834.148 478.369L978.103 476.359L1048.02 475.169L1161.48 473.153L1329.26 475.948L1364.37 476.02L1469.97 473.753L1525.92 472.809L1681.76 478.287L1802.24 479.698L2011.85 475.538L2011.88 476.564L1802.25 480.724L1681.73 479.313L1525.91 473.835L1469.99 474.779L1364.38 477.046L1329.25 476.974L1161.48 474.179L1048.03 476.194L978.118 477.384L834.132 479.395L728.411 475.358L670.368 472.409L511.661 472.383L402.395 478.385L331.785 478.821L198.104 475.656L65.2592 481.76L-63.5027 482.411Z" fill="#6EC4FF"/>
<path d="M2010.7 487.223H-63.5078V488.249H2010.7V487.223Z" fill="#6EC4FF"/>
</g>
</g>
</g>
</svg>
